HIERARCHY
ROOT Hips
{
	OFFSET 0.000000 0.000000 0.000000
	CHANNELS 6 Xposition Yposition Zposition Zrotation Yrotation Xrotation 
	JOINT LHipJoint
	{
		OFFSET 0.000000 0.000000 0.000000
		CHANNELS 3 Zrotation Yrotation Xrotation
		JOINT LeftUpLeg
		{
			OFFSET 1.363060 -1.794630 0.839290
			CHANNELS 3 Zrotation Yrotation Xrotation
			JOINT LeftLeg
			{
				OFFSET 2.448110 -6.726130 0.000000
				CHANNELS 3 Zrotation Yrotation Xrotation
				JOINT LeftFoot
				{
					OFFSET 2.562200 -7.039590 0.000000
					CHANNELS 3 Zrotation Yrotation Xrotation
					JOINT LeftToeBase
					{
						OFFSET 0.157640 -0.433110 2.322550
						CHANNELS 3 Zrotation Yrotation Xrotation
						End Site
						{
							OFFSET 0.000000 0.000000 0.000000
						}
					}
				}
			}
		}
	}
	JOINT RHipJoint
	{
		OFFSET 0.000000 0.000000 0.000000
		CHANNELS 3 Zrotation Yrotation Xrotation
		JOINT RightUpLeg
		{
			OFFSET -1.305520 -1.794630 0.839290
			CHANNELS 3 Zrotation Yrotation Xrotation
			JOINT RightLeg
			{
				OFFSET -2.542530 -6.985550 0.000000
				CHANNELS 3 Zrotation Yrotation Xrotation
				JOINT RightFoot
				{
					OFFSET -2.568260 -7.056230 0.000000
					CHANNELS 3 Zrotation Yrotation Xrotation
					JOINT RightToeBase
					{
						OFFSET -0.164730 -0.452590 2.363150
						CHANNELS 3 Zrotation Yrotation Xrotation
						End Site
						{
							OFFSET 0.000000 0.000000 0.000000
						}
					}
				}
			}
		}
	}
	JOINT LowerBack
	{
		OFFSET 0.000000 0.000000 0.000000
		CHANNELS 3 Zrotation Yrotation Xrotation
		JOINT Spine
		{
			OFFSET 0.028270 2.035590 -0.193380
			CHANNELS 3 Zrotation Yrotation Xrotation
			JOINT Spine1
			{
				OFFSET 0.056720 2.048850 -0.042750
				CHANNELS 3 Zrotation Yrotation Xrotation
				JOINT Neck
				{
					OFFSET 0.000000 0.000000 0.000000
					CHANNELS 3 Zrotation Yrotation Xrotation
					JOINT Neck1
					{
						OFFSET -0.054170 1.746240 0.172020
						CHANNELS 3 Zrotation Yrotation Xrotation
						JOINT Head
						{
							OFFSET 0.104070 1.761360 -0.123970
							CHANNELS 3 Zrotation Yrotation Xrotation
							End Site
							{
								OFFSET 0.000000 0.000000 0.000000
							}
						}
					}
				}
				JOINT LeftShoulder
				{
					OFFSET 0.000000 0.000000 0.000000
					CHANNELS 3 Zrotation Yrotation Xrotation
					JOINT LeftArm
					{
						OFFSET 3.362410 1.200890 -0.311210
						CHANNELS 3 Zrotation Yrotation Xrotation
						JOINT LeftForeArm
						{
							OFFSET 4.983000 -0.000000 -0.000000
							CHANNELS 3 Zrotation Yrotation Xrotation
							JOINT LeftHand
							{
								OFFSET 3.483560 -0.000000 -0.000000
								CHANNELS 3 Zrotation Yrotation Xrotation
								JOINT LeftFingerBase
								{
									OFFSET 0.000000 0.000000 0.000000
									CHANNELS 3 Zrotation Yrotation Xrotation
									JOINT LeftHandIndex1
									{
										OFFSET 0.715260 -0.000000 -0.000000
										CHANNELS 3 Zrotation Yrotation Xrotation
										End Site
										{
											OFFSET 0.000000 0.000000 0.000000
										}
									}
								}
								JOINT LThumb
								{
									OFFSET 0.000000 0.000000 0.000000
									CHANNELS 3 Zrotation Yrotation Xrotation
									End Site
									{
										OFFSET 0.000000 0.000000 0.000000
									}
								}
							}
						}
					}
				}
				JOINT RightShoulder
				{
					OFFSET 0.000000 0.000000 0.000000
					CHANNELS 3 Zrotation Yrotation Xrotation
					JOINT RightArm
					{
						OFFSET -3.136600 1.374050 -0.404650
						CHANNELS 3 Zrotation Yrotation Xrotation
						JOINT RightForeArm
						{
							OFFSET -5.241900 -0.000000 -0.000000
							CHANNELS 3 Zrotation Yrotation Xrotation
							JOINT RightHand
							{
								OFFSET -3.444170 -0.000000 -0.000000
								CHANNELS 3 Zrotation Yrotation Xrotation
								JOINT RightFingerBase
								{
									OFFSET 0.000000 0.000000 0.000000
									CHANNELS 3 Zrotation Yrotation Xrotation
									JOINT RightHandIndex1
									{
										OFFSET -0.622530 -0.000000 -0.000000
										CHANNELS 3 Zrotation Yrotation Xrotation
										End Site
										{
											OFFSET 0.000000 0.000000 0.000000
										}
									}
								}
								JOINT RThumb
								{
									OFFSET 0.000000 0.000000 0.000000
									CHANNELS 3 Zrotation Yrotation Xrotation
									End Site
									{
										OFFSET 0.000000 0.000000 0.000000
									}
								}
							}
						}
					}
				}
			}
		}
	}
}
MOTION
Frames: 5
Frame Time: 0.008333
-9.300793 18.218772 -1.856212 19.115622 79.837108 39.544075 -9.848367 0.455776 2.986023 -6.757370 -2.269876 -42.233950 -0.370732 1.427485 37.717791 0.679676 3.183034 11.110154 1.105600 -0.000000 -42.378000 11.191714 -3.809768 2.576161 2.244382 0.884953 -6.253095 0.818249 -0.867178 9.542786 -0.357754 -0.949564 19.283276 -0.627900 -0.000000 -55.045700 -4.924000 2.490239 -6.517190 -1.120363 2.782457 -4.309573 -2.453741 2.540862 -0.130066 1.038288 -5.208073 -8.917993 0.315127 0.041559 -0.281746 0.000000 0.000000 0.000000 -0.724198 18.652328 2.891803 -37.230275 23.234659 -13.245548 -4.636406 -13.085622 -0.026602 11.078877 3.796114 0.375895 -0.319207 0.029521 -0.000000 0.000000 0.000000 0.000000 0.000000 0.000000 0.000000 -10.137970 0.908843 -1.522802 7.629592 26.321531 -49.040285 -0.599760 71.571427 -0.218174 -19.563251 4.126256 -0.839104 0.181406 -0.690772 -0.000000 0.000000 0.000000 0.000000 0.000000 0.000000 0.000000 
-9.081452 18.318054 -1.873766 20.100602 80.124722 40.455001 -9.734845 0.564149 3.265418 -6.503605 -3.246386 -40.898004 -0.563467 1.172302 32.749020 0.535332 2.470172 13.416113 1.013001 0.000000 -43.481100 11.334145 -3.828144 2.330934 2.078370 0.017425 -5.410251 0.708061 -0.878995 9.065228 -0.581272 -2.484424 20.396635 -1.329099 -0.000000 -50.697701 -5.023896 2.637716 -6.477334 -1.092881 2.949015 -4.286286 -2.234926 2.703359 -0.072439 0.541616 -5.523514 -8.892581 0.544235 0.059655 -0.271804 0.000000 0.000000 0.000000 -0.410215 18.913402 2.844972 -36.202067 24.382073 -12.992620 -4.641082 -13.497432 -0.027617 10.724958 3.858937 0.370609 -0.331975 0.029590 -0.000000 0.000000 0.000000 0.000000 0.000000 0.000000 0.000000 -11.492182 0.623177 -1.573365 6.654840 25.566818 -50.448114 -0.578952 71.828978 -0.224058 -19.768062 4.164903 -0.857405 0.189721 -0.703012 -0.000000 0.000000 0.000000 0.000000 0.000000 0.000000 0.000000 
-8.862608 18.403817 -1.894338 20.648459 80.405608 40.900142 -9.660409 0.657435 3.529365 -6.148042 -4.117142 -39.565399 -0.746937 0.935073 27.956868 0.426337 2.028580 15.710797 0.970900 -0.000000 -44.193900 11.426571 -3.838037 2.082449 2.023209 -0.798538 -4.615623 0.607205 -0.891067 8.938885 -0.825816 -4.266474 20.900019 -2.180401 -0.000000 -46.743700 -5.044541 2.780127 -6.425508 -1.045823 3.105437 -4.256067 -2.009130 2.857380 -0.003392 0.047372 -5.832577 -8.863344 0.777662 0.078078 -0.261710 0.000000 0.000000 0.000000 -0.080410 19.229799 2.809444 -35.264744 25.511939 -12.714685 -4.640281 -13.986458 -0.028651 10.351160 3.907708 0.362924 -0.344019 0.030431 -0.000000 0.000000 0.000000 0.000000 0.000000 0.000000 0.000000 -12.874344 0.347404 -1.635516 5.783758 24.899627 -51.741647 -0.558647 72.090391 -0.229976 -19.978070 4.169838 -0.870014 0.198404 -0.714653 -0.000000 0.000000 0.000000 0.000000 0.000000 0.000000 0.000000 
-8.644040 18.475561 -1.917579 20.813422 80.680821 40.934542 -9.620513 0.732334 3.771430 -5.738433 -4.845954 -38.287943 -0.921853 0.715217 23.443127 0.350304 1.848958 17.883819 1.000900 0.000000 -44.585900 11.476101 -3.843888 1.836290 2.050702 -1.576544 -3.885088 0.516278 -0.907446 9.172049 -1.083073 -6.170985 20.858667 -3.088200 -0.000000 -43.389700 -5.002224 2.915921 -6.366365 -0.983954 3.251052 -4.220595 -1.780923 3.002009 0.075992 -0.430781 -6.137577 -8.832301 1.010763 0.096457 -0.252034 0.000000 0.000000 0.000000 0.264372 19.597614 2.783974 -34.399189 26.610418 -12.443443 -4.632913 -14.509698 -0.029660 9.997025 3.931418 0.353240 -0.355294 0.032230 -0.000000 0.000000 0.000000 0.000000 0.000000 0.000000 0.000000 -14.248797 0.079324 -1.706074 4.974911 24.324983 -52.923756 -0.537494 72.363772 -0.235674 -20.177203 4.153917 -0.878325 0.207016 -0.725536 -0.000000 0.000000 0.000000 0.000000 0.000000 0.000000 0.000000 
-8.425859 18.533347 -1.944085 20.467773 80.959339 40.431035 -9.626397 0.779523 3.970629 -5.302151 -5.326435 -37.138694 -1.088286 0.516819 19.344700 0.295821 1.820823 19.797892 1.075200 0.000000 -44.666400 11.467186 -3.855486 1.605985 2.191964 -2.254743 -3.184677 0.436942 -0.927548 9.697665 -1.352476 -8.153216 20.404430 -4.003800 -0.000000 -40.740400 -4.873408 3.048561 -6.295299 -0.903670 3.387477 -4.179436 -1.553839 3.139089 0.163640 -0.891209 -6.446281 -8.802539 1.239346 0.114475 -0.243675 0.000000 0.000000 0.000000 0.596873 20.021456 2.765957 -33.583323 27.651760 -12.198337 -4.618319 -15.015102 -0.030586 9.705194 3.918219 0.342256 -0.365953 0.035035 -0.000000 0.000000 0.000000 0.000000 0.000000 0.000000 0.000000 -15.596476 -0.187297 -1.784215 4.188730 23.856739 -54.004699 -0.515234 72.657986 -0.240913 -20.351843 4.132233 -0.884340 0.215257 -0.735573 0.000000 0.000000 0.000000 0.000000 0.000000 0.000000 0.000000 
